<svg xmlns="http://www.w3.org/2000/svg" width="27" height="27" viewBox="0 0 27 27"><g><g><path fill="#7e7d7e" d="M13.5 0C20.956 0 27 6.044 27 13.5S20.956 27 13.5 27 0 20.956 0 13.5 6.044 0 13.5 0z"/></g><g><path fill="#fff" d="M20.892 12.131l-2.442-1.88V7.805a.271.271 0 0 0-.276-.274h-1.66a.288.288 0 0 0-.205.08.259.259 0 0 0-.085.194v.716l-1.786-1.376a.717.717 0 0 0-.44-.148.798.798 0 0 0-.439.148L7.105 12.13a.301.301 0 0 0-.105.186c-.009.073.011.138.061.194l.334.372a.268.268 0 0 0 .216.1h.484c.084 0 .148-.02.187-.058l5.53-4.27c.125-.092.248-.092.373 0l5.53 4.27a.284.284 0 0 0 .187.057h.483c.094 0 .167-.033.216-.099l.335-.372c.05-.06.07-.128.06-.2a.266.266 0 0 0-.104-.18zm-6.894-2.914L8.98 13.101v4.368c0 .155.054.282.16.383a.563.563 0 0 0 .406.152h3.142v-3.498h2.62v3.498h3.141c.164 0 .298-.05.406-.152.106-.1.16-.228.16-.383v-4.368z"/></g></g></svg>